<svg xmlns="http://www.w3.org/2000/svg" viewBox="0 0 100 100" preserveAspectRatio="xMidYMid" style="shape-rendering: auto; display: block; background: transparent;" width="100%" height="100%" xmlns:xlink="http://www.w3.org/1999/xlink"><g><g transform="rotate(0 50 50)">
  <rect fill="#fe718d" height="12" width="5" ry="6" rx="2.5" y="20" x="47.5">
    <animate repeatCount="indefinite" begin="-1.4685314685314685s" dur="1.5384615384615383s" keyTimes="0;1" values="1;0" attributeName="opacity"></animate>
  </rect>
</g><g transform="rotate(16.363636363636363 50 50)">
  <rect fill="#f47e60" height="12" width="5" ry="6" rx="2.5" y="20" x="47.5">
    <animate repeatCount="indefinite" begin="-1.3986013986013985s" dur="1.5384615384615383s" keyTimes="0;1" values="1;0" attributeName="opacity"></animate>
  </rect>
</g><g transform="rotate(32.72727272727273 50 50)">
  <rect fill="#f8b26a" height="12" width="5" ry="6" rx="2.5" y="20" x="47.5">
    <animate repeatCount="indefinite" begin="-1.3286713286713285s" dur="1.5384615384615383s" keyTimes="0;1" values="1;0" attributeName="opacity"></animate>
  </rect>
</g><g transform="rotate(49.09090909090909 50 50)">
  <rect fill="#abbd81" height="12" width="5" ry="6" rx="2.5" y="20" x="47.5">
    <animate repeatCount="indefinite" begin="-1.2587412587412588s" dur="1.5384615384615383s" keyTimes="0;1" values="1;0" attributeName="opacity"></animate>
  </rect>
</g><g transform="rotate(65.45454545454545 50 50)">
  <rect fill="#849b87" height="12" width="5" ry="6" rx="2.5" y="20" x="47.5">
    <animate repeatCount="indefinite" begin="-1.1888111888111887s" dur="1.5384615384615383s" keyTimes="0;1" values="1;0" attributeName="opacity"></animate>
  </rect>
</g><g transform="rotate(81.81818181818181 50 50)">
  <rect fill="#6492ac" height="12" width="5" ry="6" rx="2.5" y="20" x="47.5">
    <animate repeatCount="indefinite" begin="-1.1188811188811187s" dur="1.5384615384615383s" keyTimes="0;1" values="1;0" attributeName="opacity"></animate>
  </rect>
</g><g transform="rotate(98.18181818181819 50 50)">
  <rect fill="#637cb5" height="12" width="5" ry="6" rx="2.5" y="20" x="47.5">
    <animate repeatCount="indefinite" begin="-1.048951048951049s" dur="1.5384615384615383s" keyTimes="0;1" values="1;0" attributeName="opacity"></animate>
  </rect>
</g><g transform="rotate(114.54545454545455 50 50)">
  <rect fill="#6a63b6" height="12" width="5" ry="6" rx="2.5" y="20" x="47.5">
    <animate repeatCount="indefinite" begin="-0.979020979020979s" dur="1.5384615384615383s" keyTimes="0;1" values="1;0" attributeName="opacity"></animate>
  </rect>
</g><g transform="rotate(130.9090909090909 50 50)">
  <rect fill="#fe718d" height="12" width="5" ry="6" rx="2.5" y="20" x="47.5">
    <animate repeatCount="indefinite" begin="-0.9090909090909091s" dur="1.5384615384615383s" keyTimes="0;1" values="1;0" attributeName="opacity"></animate>
  </rect>
</g><g transform="rotate(147.27272727272728 50 50)">
  <rect fill="#f47e60" height="12" width="5" ry="6" rx="2.5" y="20" x="47.5">
    <animate repeatCount="indefinite" begin="-0.8391608391608392s" dur="1.5384615384615383s" keyTimes="0;1" values="1;0" attributeName="opacity"></animate>
  </rect>
</g><g transform="rotate(163.63636363636363 50 50)">
  <rect fill="#f8b26a" height="12" width="5" ry="6" rx="2.5" y="20" x="47.5">
    <animate repeatCount="indefinite" begin="-0.7692307692307692s" dur="1.5384615384615383s" keyTimes="0;1" values="1;0" attributeName="opacity"></animate>
  </rect>
</g><g transform="rotate(180 50 50)">
  <rect fill="#abbd81" height="12" width="5" ry="6" rx="2.5" y="20" x="47.5">
    <animate repeatCount="indefinite" begin="-0.6993006993006993s" dur="1.5384615384615383s" keyTimes="0;1" values="1;0" attributeName="opacity"></animate>
  </rect>
</g><g transform="rotate(196.36363636363637 50 50)">
  <rect fill="#849b87" height="12" width="5" ry="6" rx="2.5" y="20" x="47.5">
    <animate repeatCount="indefinite" begin="-0.6293706293706294s" dur="1.5384615384615383s" keyTimes="0;1" values="1;0" attributeName="opacity"></animate>
  </rect>
</g><g transform="rotate(212.72727272727272 50 50)">
  <rect fill="#6492ac" height="12" width="5" ry="6" rx="2.5" y="20" x="47.5">
    <animate repeatCount="indefinite" begin="-0.5594405594405594s" dur="1.5384615384615383s" keyTimes="0;1" values="1;0" attributeName="opacity"></animate>
  </rect>
</g><g transform="rotate(229.0909090909091 50 50)">
  <rect fill="#637cb5" height="12" width="5" ry="6" rx="2.5" y="20" x="47.5">
    <animate repeatCount="indefinite" begin="-0.4895104895104895s" dur="1.5384615384615383s" keyTimes="0;1" values="1;0" attributeName="opacity"></animate>
  </rect>
</g><g transform="rotate(245.45454545454547 50 50)">
  <rect fill="#6a63b6" height="12" width="5" ry="6" rx="2.5" y="20" x="47.5">
    <animate repeatCount="indefinite" begin="-0.4195804195804196s" dur="1.5384615384615383s" keyTimes="0;1" values="1;0" attributeName="opacity"></animate>
  </rect>
</g><g transform="rotate(261.8181818181818 50 50)">
  <rect fill="#fe718d" height="12" width="5" ry="6" rx="2.5" y="20" x="47.5">
    <animate repeatCount="indefinite" begin="-0.34965034965034963s" dur="1.5384615384615383s" keyTimes="0;1" values="1;0" attributeName="opacity"></animate>
  </rect>
</g><g transform="rotate(278.1818181818182 50 50)">
  <rect fill="#f47e60" height="12" width="5" ry="6" rx="2.5" y="20" x="47.5">
    <animate repeatCount="indefinite" begin="-0.2797202797202797s" dur="1.5384615384615383s" keyTimes="0;1" values="1;0" attributeName="opacity"></animate>
  </rect>
</g><g transform="rotate(294.54545454545456 50 50)">
  <rect fill="#f8b26a" height="12" width="5" ry="6" rx="2.5" y="20" x="47.5">
    <animate repeatCount="indefinite" begin="-0.2097902097902098s" dur="1.5384615384615383s" keyTimes="0;1" values="1;0" attributeName="opacity"></animate>
  </rect>
</g><g transform="rotate(310.90909090909093 50 50)">
  <rect fill="#abbd81" height="12" width="5" ry="6" rx="2.5" y="20" x="47.5">
    <animate repeatCount="indefinite" begin="-0.13986013986013984s" dur="1.5384615384615383s" keyTimes="0;1" values="1;0" attributeName="opacity"></animate>
  </rect>
</g><g transform="rotate(327.27272727272725 50 50)">
  <rect fill="#849b87" height="12" width="5" ry="6" rx="2.5" y="20" x="47.5">
    <animate repeatCount="indefinite" begin="-0.06993006993006992s" dur="1.5384615384615383s" keyTimes="0;1" values="1;0" attributeName="opacity"></animate>
  </rect>
</g><g transform="rotate(343.6363636363636 50 50)">
  <rect fill="#6492ac" height="12" width="5" ry="6" rx="2.5" y="20" x="47.5">
    <animate repeatCount="indefinite" begin="0s" dur="1.5384615384615383s" keyTimes="0;1" values="1;0" attributeName="opacity"></animate>
  </rect>
</g><g></g></g><!-- [ldio] generated by https://loading.io --></svg>